<svg xmlns="http://www.w3.org/2000/svg" width="80" height="61" viewBox="0 0 80 61">
  <g id="Group_30" data-name="Group 30" transform="translate(-9078 310)">
    <g id="Group_23" data-name="Group 23" transform="translate(9077.821 -310.311)">
      <path id="Subtraction_3" data-name="Subtraction 3" d="M20,40A20,20,0,0,1,12.218,1.572a20.073,20.073,0,0,1,15.705.056,13.215,13.215,0,0,0-1.251,5.645A13.352,13.352,0,0,0,40,20.606,13.342,13.342,0,0,0,27.492,38.552,19.9,19.9,0,0,1,20,40ZM17.58,13.333A6.667,6.667,0,1,0,24.248,20,6.675,6.675,0,0,0,17.58,13.333Z" transform="translate(0.179 0.311)" fill="#3613e1"/>
      <path id="Subtraction_1" data-name="Subtraction 1" d="M20,40a19.905,19.905,0,0,1-7.488-1.448,13.288,13.288,0,0,0,.82-4.613A13.352,13.352,0,0,0,0,20.606,13.352,13.352,0,0,0,13.327,7.273a13.216,13.216,0,0,0-1.251-5.645,20.006,20.006,0,1,1,15.705,36.8A19.883,19.883,0,0,1,20,40Zm3.637-26.667A6.667,6.667,0,1,0,30.3,20,6.675,6.675,0,0,0,23.633,13.333Z" transform="translate(40.179 0.311)" fill="#3613e1"/>
    </g>
    <text id="KULIARI" transform="translate(9090 -252)" fill="#3613e1" font-size="14" font-family="Nikkyou-Sans, Nikkyou Sans"><tspan x="0" y="0">KULIARI</tspan></text>
  </g>
</svg>
